# xmcd
#
# Track frame offsets:
#	150
#	6218
#	15598
#	27312
#	33085
#	43637
#	50017
#	63481
#	69806
#	79553
#	88621
#	102382
#	108355
#	119673
#	124970
#	135673
#	142116
#	148662
#	155284
#	166438
#	171336
#	182484
#	187707
#	196250
#	202442
#	211145
#	217083
#	230354
#	237089
#	250724
#	256757
#	268385
#	274177
#
# Disc length: 3791 seconds
#
# Revision: 1
# Processed by: cddbd v1.5.1PL0 Copyright (c) Steve Scherf et al.
# Submitted via: CDex 1.50Beta5
#
DISCID=de0ecd21
DTITLE=NHK - ドイツ語講座200206A
DYEAR=1900
DGENRE=Other
TTITLE0=D6A01
TTITLE1=D6A02
TTITLE2=D6A03
TTITLE3=D6A04
TTITLE4=D6A05
TTITLE5=D6A06
TTITLE6=D6A07
TTITLE7=D6A08
TTITLE8=D6A09
TTITLE9=D6A10
TTITLE10=D6A11
TTITLE11=D6A12
TTITLE12=D6A13
TTITLE13=D6A14
TTITLE14=D6A15
TTITLE15=D6A16
TTITLE16=D6A17
TTITLE17=D6A18
TTITLE18=D6A19
TTITLE19=D6A20
TTITLE20=D6A21
TTITLE21=D6A22
TTITLE22=D6A23
TTITLE23=D6A24
TTITLE24=D6A25
TTITLE25=D6A26
TTITLE26=D6A27
TTITLE27=D6A28
TTITLE28=D6A29
TTITLE29=D6A30
TTITLE30=D6A31
TTITLE31=D6A32
TTITLE32=D6A33
EXTD=
EXTT0=
EXTT1=
EXTT2=
EXTT3=
EXTT4=
EXTT5=
EXTT6=
EXTT7=
EXTT8=
EXTT9=
EXTT10=
EXTT11=
EXTT12=
EXTT13=
EXTT14=
EXTT15=
EXTT16=
EXTT17=
EXTT18=
EXTT19=
EXTT20=
EXTT21=
EXTT22=
EXTT23=
EXTT24=
EXTT25=
EXTT26=
EXTT27=
EXTT28=
EXTT29=
EXTT30=
EXTT31=
EXTT32=
PLAYORDER=
